<svg xmlns="http://www.w3.org/2000/svg" width="16" height="16" fill="none" viewBox="0 0 16 16"><path fill="#000" fill-opacity=".45" d="M13.414 11.931a5.8 5.8 0 0 0-1.26-1.867 5.9 5.9 0 0 0-1.867-1.26l-.019-.007a3.874 3.874 0 1 0-4.537.002l-.019.007c-.7.296-1.328.719-1.867 1.26a5.87 5.87 0 0 0-1.72 4.025.125.125 0 0 0 .125.128h.938a.125.125 0 0 0 .125-.122 4.66 4.66 0 0 1 1.372-3.192A4.66 4.66 0 0 1 8 9.532c1.252 0 2.428.487 3.314 1.373a4.66 4.66 0 0 1 1.372 3.192.124.124 0 0 0 .125.122h.938a.12.12 0 0 0 .09-.038.13.13 0 0 0 .036-.09 5.8 5.8 0 0 0-.461-2.16M8 8.344a2.67 2.67 0 0 1-1.9-.787 2.67 2.67 0 0 1-.787-1.9c0-.718.279-1.393.787-1.9A2.67 2.67 0 0 1 8 2.968c.717 0 1.392.28 1.9.787a2.67 2.67 0 0 1 .788 1.9 2.67 2.67 0 0 1-.788 1.9 2.67 2.67 0 0 1-1.9.787"/></svg>