<svg width="18" height="18" viewBox="0 0 18 18" fill="none" xmlns="http://www.w3.org/2000/svg">
<path d="M15.3274 8.33203H5.04241L11.1983 2.98828C11.2967 2.90215 11.2369 2.74219 11.1069 2.74219H9.55119C9.48264 2.74219 9.4176 2.7668 9.36662 2.81074L2.72385 8.57461C2.66301 8.62735 2.61422 8.69255 2.58078 8.76579C2.54734 8.83903 2.53003 8.91861 2.53003 8.99912C2.53003 9.07964 2.54734 9.15921 2.58078 9.23245C2.61422 9.3057 2.66301 9.37089 2.72385 9.42363L9.4053 15.2227C9.43166 15.2455 9.4633 15.2578 9.4967 15.2578H11.1051C11.2352 15.2578 11.2949 15.0961 11.1965 15.0117L5.04241 9.66797H15.3274C15.4047 9.66797 15.468 9.60469 15.468 9.52734V8.47266C15.468 8.39531 15.4047 8.33203 15.3274 8.33203Z" fill="black" fill-opacity="0.88"/>
</svg>
