<svg width="16" height="16" viewBox="0 0 16 16" fill="none" xmlns="http://www.w3.org/2000/svg">
<path d="M13.4137 11.9312C13.119 11.2331 12.6913 10.5989 12.1544 10.0641C11.6191 9.52767 10.985 9.10001 10.2872 8.80469C10.2809 8.80156 10.2747 8.8 10.2684 8.79688C11.2419 8.09375 11.8747 6.94844 11.8747 5.65625C11.8747 3.51562 10.1403 1.78125 7.99967 1.78125C5.85905 1.78125 4.12467 3.51562 4.12467 5.65625C4.12467 6.94844 4.75749 8.09375 5.73092 8.79844C5.72467 8.80156 5.71842 8.80312 5.71217 8.80625C5.01217 9.10156 4.38405 9.525 3.84499 10.0656C3.30859 10.6009 2.88093 11.235 2.58561 11.9328C2.29549 12.616 2.13902 13.3485 2.12467 14.0906C2.12426 14.1073 2.12718 14.1239 2.13328 14.1394C2.13937 14.1549 2.14851 14.1691 2.16016 14.181C2.17181 14.193 2.18573 14.2025 2.2011 14.2089C2.21648 14.2154 2.23299 14.2188 2.24967 14.2188H3.18717C3.25592 14.2188 3.31061 14.1641 3.31217 14.0969C3.34342 12.8906 3.8278 11.7609 4.68405 10.9047C5.56999 10.0188 6.74655 9.53125 7.99967 9.53125C9.2528 9.53125 10.4294 10.0188 11.3153 10.9047C12.1715 11.7609 12.6559 12.8906 12.6872 14.0969C12.6887 14.1656 12.7434 14.2188 12.8122 14.2188H13.7497C13.7664 14.2188 13.7829 14.2154 13.7982 14.2089C13.8136 14.2025 13.8275 14.193 13.8392 14.181C13.8508 14.1691 13.86 14.1549 13.8661 14.1394C13.8722 14.1239 13.8751 14.1073 13.8747 14.0906C13.859 13.3438 13.7044 12.6172 13.4137 11.9312ZM7.99967 8.34375C7.28249 8.34375 6.60749 8.06406 6.09967 7.55625C5.59186 7.04844 5.31217 6.37344 5.31217 5.65625C5.31217 4.93906 5.59186 4.26406 6.09967 3.75625C6.60749 3.24844 7.28249 2.96875 7.99967 2.96875C8.71686 2.96875 9.39186 3.24844 9.89967 3.75625C10.4075 4.26406 10.6872 4.93906 10.6872 5.65625C10.6872 6.37344 10.4075 7.04844 9.89967 7.55625C9.39186 8.06406 8.71686 8.34375 7.99967 8.34375Z" fill="black" fill-opacity="0.45"/>
</svg>
